<?xml version="1.0" encoding="UTF-8" standalone="no"?>
<!DOCTYPE svg PUBLIC "-//W3C//DTD SVG 1.1//EN" "http://www.w3.org/Graphics/SVG/1.1/DTD/svg11.dtd">
<svg width="100%" height="100%" viewBox="0 0 295 301" version="1.1" xmlns="http://www.w3.org/2000/svg" xmlns:xlink="http://www.w3.org/1999/xlink" xml:space="preserve" xmlns:serif="http://www.serif.com/" style="fill-rule:evenodd;clip-rule:evenodd;stroke-linecap:round;stroke-linejoin:round;stroke-miterlimit:1.5;">
    <g transform="matrix(1,0,0,1,-3.43755,-130.595)">
        <g transform="matrix(1,0,0,1.00939,-363.574,3.52253)">
            <ellipse cx="389.851" cy="277.447" rx="142.979" ry="145.021" style="fill:rgb(85,57,25);stroke:rgb(149,110,45);stroke-width:8.03px;"/>
        </g>
        <g transform="matrix(0.814017,0,0,0.821375,-290.123,54.0409)">
            <ellipse cx="389.851" cy="277.447" rx="142.979" ry="145.021" style="fill:rgb(54,20,0);stroke:rgb(149,110,45);stroke-width:5.14px;"/>
        </g>
        <g transform="matrix(1,0,0,1,-0.273129,0.324304)">
            <g transform="matrix(0.726246,0,0,0.698103,-261.982,87.6221)">
                <ellipse cx="389.851" cy="277.447" rx="142.979" ry="145.021" style="fill:white;"/>
            </g>
            <g transform="matrix(0.394651,0,0,0.405658,-129.504,169.13)">
                <ellipse cx="389.851" cy="277.447" rx="142.979" ry="145.021" style="fill:none;stroke:black;stroke-width:1.98px;stroke-dasharray:1.98,1.98;"/>
            </g>
            <path d="M18.056,282.402L32.969,270.588C36.022,269.183 39.812,261.64 39.812,261.64L40.68,260.797L42.327,260.529L43.953,259.808L43.613,258.073L43.613,254.622L49.579,254.622L49.462,250.119L53.439,250.119L53.848,253.394L97.695,219.941L55.859,255.209L59.895,256.017L59.923,259.002L54.159,259.077L53.897,263.905L51.115,263.94L48.838,263.723L47.167,265.575L46.96,267.01L46.022,267.843C46.022,267.843 34.83,269.962 34.089,271.844L18.591,283.098L18.056,282.402Z" style="fill:rgb(149,110,45);"/>
            <path d="M10.393,272.293L18.28,277.908L20.546,275.641L12.577,269.72C12.577,269.72 10.651,268.866 10.389,267.364C9.875,264.409 9.897,259.808 2.336,260.293L2.416,258.389L4.609,258.023L4.828,254.806L6.948,254.514L7.241,250.054L6.364,249.762L6.144,248.958L1.392,248.665L1.246,249.689L-0.07,250.054L-1.985,269.622C-1.985,269.622 3.048,277.65 10.393,272.293Z" style="fill:rgb(85,57,25);"/>
            <path d="M-0.264,252.04L1.299,250.978L1.898,250.11L5.042,250.2L6.03,250.739L6.09,253.194L3.754,254.122L3.784,257.177L1.838,257.776L-0.139,257.626L-0.264,252.04Z" style="fill:white;"/>
            <g transform="matrix(1.52778,0,0,1.46808,-6.05439,-126.853)">
                <ellipse cx="7.039" cy="268.193" rx="5.264" ry="5.154" style="fill:rgb(85,57,25);"/>
            </g>
            <g transform="matrix(1.32943,0.130068,-0.112897,1.15392,24.9836,-43.7183)">
                <ellipse cx="7.039" cy="268.193" rx="5.264" ry="5.154" style="fill:white;"/>
            </g>
            <g transform="matrix(1.05909,0,0,1.03241,-2.55109,-11.117)">
                <ellipse cx="24.862" cy="280.776" rx="6.433" ry="6.316" style="fill:rgb(149,110,45);"/>
            </g>
            <g>
                <g transform="matrix(1,0,0,0.958645,-0.187674,14.2628)">
                    <path d="M61.933,349.99L68.132,371.63L70.998,369.934L63.278,351.511L61.933,349.99Z"/>
                </g>
                <path d="M59.458,340.6L79.489,363.628L75.687,365.968L61.797,350.031L59.458,340.6Z"/>
            </g>
            <g transform="matrix(0.873589,0.486665,-0.486665,0.873589,141.968,22.6295)">
                <path d="M61.933,349.99L68.132,371.63L70.998,369.934L63.278,351.511L61.933,349.99Z"/>
                <path d="M59.458,340.6L79.489,363.628L75.687,365.968L61.797,350.031L59.458,340.6Z"/>
            </g>
            <path d="M9.08,183.052L17.853,213.055L23.468,212.938L14.495,182.297L8.808,182.289L9.08,183.052Z"/>
            <g transform="matrix(1,0,0,1,-8.85265,167.983)">
                <path d="M24.93,182.35L28.907,182.292L28.907,212.528L25.047,212.587L24.93,182.35Z"/>
            </g>
            <path d="M8.086,212.879L12.297,212.879L24.427,182.134L21.417,182.148L8.086,212.879Z"/>
            <g>
                <path d="M24.93,182.35L28.907,182.292L28.907,212.528L25.047,212.587L24.93,182.35Z"/>
                <g transform="matrix(1,0,0,1,5.94204,0)">
                    <path d="M24.93,182.35L28.907,182.292L28.907,212.528L25.047,212.587L24.93,182.35Z"/>
                </g>
            </g>
            <g transform="matrix(0.515921,0.856636,-0.856636,0.515921,249.512,112.465)">
                <path d="M24.93,182.35L28.907,182.292L28.907,212.528L25.047,212.587L24.93,182.35Z"/>
                <g transform="matrix(1,0,0,1,5.94204,0)">
                    <path d="M24.93,182.35L28.907,182.292L28.907,212.528L25.047,212.587L24.93,182.35Z"/>
                </g>
            </g>
            <g transform="matrix(0.00210593,0.999998,-0.999998,0.00210593,304.483,247.322)">
                <path d="M24.93,182.35L28.907,182.292L28.907,212.528L25.047,212.587L24.93,182.35Z"/>
                <g transform="matrix(1,0,0,1,5.94204,0)">
                    <path d="M24.93,182.35L28.907,182.292L28.907,212.528L25.047,212.587L24.93,182.35Z"/>
                </g>
            </g>
            <g transform="matrix(-0.515667,0.856789,-0.856789,-0.515667,284.766,393.111)">
                <path d="M24.93,182.35L28.907,182.292L28.907,212.528L25.047,212.587L24.93,182.35Z"/>
                <g transform="matrix(1,0,0,1,5.94204,0)">
                    <path d="M24.93,182.35L28.907,182.292L28.907,212.528L25.047,212.587L24.93,182.35Z"/>
                </g>
            </g>
            <g transform="matrix(-0.515667,0.856789,-0.856789,-0.515667,278.255,403.62)">
                <path d="M24.93,182.35L28.907,182.292L28.907,212.528L25.047,212.587L24.93,182.35Z"/>
                <g transform="matrix(1,0,0,1,5.94204,0)">
                    <path d="M24.93,182.35L28.907,182.292L28.907,212.528L25.047,212.587L24.93,182.35Z"/>
                </g>
            </g>
            <g transform="matrix(0.00210593,0.999998,-0.999998,0.00210593,304.255,259.773)">
                <path d="M24.93,182.35L28.907,182.292L28.907,212.528L25.047,212.587L24.93,182.35Z"/>
            </g>
            <g transform="matrix(0.869231,0.494407,-0.494407,0.869231,139.801,22.948)">
                <path d="M24.93,182.35L28.907,182.292L28.907,212.528L25.047,212.587L24.93,182.35Z"/>
            </g>
            <g transform="matrix(1.04127,0,0,1.04144,0.00712791,-12.3537)">
                <path d="M-0.067,298.121L18.25,283.546L17.738,282.596L-0.173,296.047L-0.067,298.121Z" style="fill:rgb(149,110,45);"/>
            </g>
            <path d="M36.666,268.839L40.619,262.251L41.361,261.676L42.559,261.532L44.811,260.502L44.5,258.203L44.547,255.472L50.524,255.543L50.405,251.124L52.441,251.004L53.471,254.525L55.411,253.837L54.381,255.801L58.957,256.687L59.004,258.101L53.303,258.197L52.872,262.886L50.908,262.862L48.943,262.67L46.596,264.904L46.188,266.257L45.59,266.928L36.666,268.839Z" style="fill:rgb(255,253,253);"/>
        </g>
        <g transform="matrix(1,0,0,1,0.450518,131.875)">
            <g>
                <path d="M36.841,28.185C36.841,28.185 35.583,22.032 41.735,17.837C47.888,13.642 35.862,13.083 37.54,10.287" style="fill:none;stroke:rgb(149,110,45);stroke-width:2.31px;"/>
                <path d="M43.25,15.697C43.25,15.697 26.856,17.916 27.07,25.075C27.285,32.235 26.211,25.648 19.124,28.941C12.036,32.235 25.782,17.344 21.916,13.907C18.05,10.471 20.341,8.251 26.354,7.75" style="fill:none;stroke:rgb(149,110,45);stroke-width:2.31px;"/>
                <path d="M25.742,7.847C25.742,7.847 28.033,20.992 34.402,8.122" style="fill:none;stroke:rgb(149,110,45);stroke-width:2.31px;"/>
            </g>
            <g transform="matrix(0.996077,0.275771,-0.275771,0.996077,38.0839,-2.98072)">
                <path d="M36.841,28.185C36.841,28.185 35.583,22.032 41.735,17.837C47.888,13.642 35.862,13.083 37.54,10.287" style="fill:none;stroke:rgb(149,110,45);stroke-width:2.24px;"/>
                <path d="M43.25,15.697C43.25,15.697 26.856,17.916 27.07,25.075C27.285,32.235 26.211,25.648 19.124,28.941C12.036,32.235 25.782,17.344 21.916,13.907C18.05,10.471 20.341,8.251 26.354,7.75" style="fill:none;stroke:rgb(149,110,45);stroke-width:2.24px;"/>
                <path d="M25.742,7.847C25.742,7.847 28.033,20.992 34.402,8.122" style="fill:none;stroke:rgb(149,110,45);stroke-width:2.24px;"/>
            </g>
            <g transform="matrix(0.899401,0.509214,-0.509214,0.899401,74.9165,5.99378)">
                <path d="M36.841,28.185C36.841,28.185 35.583,22.032 41.735,17.837C47.888,13.642 35.862,13.083 37.54,10.287" style="fill:none;stroke:rgb(149,110,45);stroke-width:2.24px;"/>
                <path d="M43.25,15.697C43.25,15.697 26.856,17.916 27.07,25.075C27.285,32.235 26.211,25.648 19.124,28.941C12.036,32.235 25.782,17.344 21.916,13.907C18.05,10.471 20.341,8.251 26.354,7.75" style="fill:none;stroke:rgb(149,110,45);stroke-width:2.24px;"/>
                <path d="M25.742,7.847C25.742,7.847 28.033,20.992 34.402,8.122" style="fill:none;stroke:rgb(149,110,45);stroke-width:2.24px;"/>
            </g>
            <g transform="matrix(0.758443,0.702128,-0.702128,0.758443,106.753,22.3161)">
                <path d="M36.841,28.185C36.841,28.185 35.583,22.032 41.735,17.837C47.888,13.642 35.862,13.083 37.54,10.287" style="fill:none;stroke:rgb(149,110,45);stroke-width:2.24px;"/>
                <path d="M43.25,15.697C43.25,15.697 26.856,17.916 27.07,25.075C27.285,32.235 26.211,25.648 19.124,28.941C12.036,32.235 25.782,17.344 21.916,13.907C18.05,10.471 20.341,8.251 26.354,7.75" style="fill:none;stroke:rgb(149,110,45);stroke-width:2.24px;"/>
                <path d="M25.742,7.847C25.742,7.847 28.033,20.992 34.402,8.122" style="fill:none;stroke:rgb(149,110,45);stroke-width:2.24px;"/>
            </g>
            <g transform="matrix(0.535771,0.883838,-0.924573,0.560464,137.379,45.3978)">
                <path d="M36.841,28.185C36.841,28.185 35.583,22.032 41.735,17.837C47.888,13.642 35.862,13.083 37.54,10.287" style="fill:none;stroke:rgb(149,110,45);stroke-width:2.19px;"/>
                <path d="M43.25,15.697C43.25,15.697 26.856,17.916 27.07,25.075C27.285,32.235 26.211,25.648 19.124,28.941C12.036,32.235 25.782,17.344 21.916,13.907C18.05,10.471 20.341,8.251 26.354,7.75" style="fill:none;stroke:rgb(149,110,45);stroke-width:2.19px;"/>
                <path d="M25.742,7.847C25.742,7.847 28.033,20.992 34.402,8.122" style="fill:none;stroke:rgb(149,110,45);stroke-width:2.19px;"/>
            </g>
            <g transform="matrix(0.281391,0.994504,-1.04034,0.29436,160.32,76.8587)">
                <path d="M36.841,28.185C36.841,28.185 35.583,22.032 41.735,17.837C47.888,13.642 35.862,13.083 37.54,10.287" style="fill:none;stroke:rgb(149,110,45);stroke-width:2.19px;"/>
                <path d="M43.25,15.697C43.25,15.697 26.856,17.916 27.07,25.075C27.285,32.235 26.211,25.648 19.124,28.941C12.036,32.235 25.782,17.344 21.916,13.907C18.05,10.471 20.341,8.251 26.354,7.75" style="fill:none;stroke:rgb(149,110,45);stroke-width:2.19px;"/>
                <path d="M25.742,7.847C25.742,7.847 28.033,20.992 34.402,8.122" style="fill:none;stroke:rgb(149,110,45);stroke-width:2.19px;"/>
            </g>
            <g transform="matrix(-0.0141072,1.03345,-1.13165,-0.0154477,176.234,114.876)">
                <path d="M36.841,28.185C36.841,28.185 35.583,22.032 41.735,17.837C47.888,13.642 35.862,13.083 37.54,10.287" style="fill:none;stroke:rgb(149,110,45);stroke-width:2.14px;"/>
                <path d="M43.25,15.697C43.25,15.697 26.856,17.916 27.07,25.075C27.285,32.235 26.211,25.648 19.124,28.941C12.036,32.235 25.782,17.344 21.916,13.907C18.05,10.471 20.341,8.251 26.354,7.75" style="fill:none;stroke:rgb(149,110,45);stroke-width:2.14px;"/>
                <path d="M25.742,7.847C25.742,7.847 28.033,20.992 34.402,8.122" style="fill:none;stroke:rgb(149,110,45);stroke-width:2.14px;"/>
            </g>
            <g transform="matrix(-0.248243,1.00329,-1.09863,-0.271832,179.662,154.95)">
                <path d="M36.841,28.185C36.841,28.185 35.583,22.032 41.735,17.837C47.888,13.642 35.862,13.083 37.54,10.287" style="fill:none;stroke:rgb(149,110,45);stroke-width:2.14px;"/>
                <path d="M43.25,15.697C43.25,15.697 26.856,17.916 27.07,25.075C27.285,32.235 26.211,25.648 19.124,28.941C12.036,32.235 25.782,17.344 21.916,13.907C18.05,10.471 20.341,8.251 26.354,7.75" style="fill:none;stroke:rgb(149,110,45);stroke-width:2.14px;"/>
                <path d="M25.742,7.847C25.742,7.847 28.033,20.992 34.402,8.122" style="fill:none;stroke:rgb(149,110,45);stroke-width:2.14px;"/>
            </g>
            <g transform="matrix(-0.41911,0.944757,-1.03453,-0.458935,172.598,190.822)">
                <g transform="matrix(1,0,0,1.03146,-1.42109e-14,-0.323623)">
                    <path d="M36.841,28.185C36.841,28.185 35.583,22.032 41.735,17.837C47.888,13.642 35.862,13.083 37.54,10.287" style="fill:none;stroke:rgb(149,110,45);stroke-width:2.1px;"/>
                </g>
                <path d="M43.25,15.697C43.25,15.697 26.856,17.916 27.07,25.075C27.285,32.235 26.211,25.648 19.124,28.941C12.036,32.235 25.782,17.344 21.916,13.907C18.05,10.471 20.341,8.251 26.354,7.75" style="fill:none;stroke:rgb(149,110,45);stroke-width:2.14px;"/>
                <path d="M25.742,7.847C25.742,7.847 28.033,20.992 34.402,8.122" style="fill:none;stroke:rgb(149,110,45);stroke-width:2.14px;"/>
            </g>
            <g transform="matrix(-0.670962,0.786149,-0.887989,-0.75788,158.157,229.493)">
                <g transform="matrix(1,0,0,1.03146,-1.42109e-14,-0.323623)">
                    <path d="M36.841,28.185C36.841,28.185 35.583,22.032 41.735,17.837C47.888,13.642 35.862,13.083 37.54,10.287" style="fill:none;stroke:rgb(149,110,45);stroke-width:2.06px;"/>
                </g>
                <path d="M43.25,15.697C43.25,15.697 26.856,17.916 27.07,25.075C27.285,32.235 26.211,25.648 19.124,28.941C12.036,32.235 25.782,17.344 21.916,13.907C18.05,10.471 20.341,8.251 26.354,7.75" style="fill:none;stroke:rgb(149,110,45);stroke-width:2.1px;"/>
                <path d="M25.742,7.847C25.742,7.847 28.033,20.992 34.402,8.122" style="fill:none;stroke:rgb(149,110,45);stroke-width:2.1px;"/>
            </g>
            <g transform="matrix(-0.834303,0.610048,-0.689075,-0.942381,133.061,261.522)">
                <g transform="matrix(1,0,0,1.03146,-1.42109e-14,-0.323623)">
                    <path d="M36.841,28.185C36.841,28.185 35.583,22.032 41.735,17.837C47.888,13.642 35.862,13.083 37.54,10.287" style="fill:none;stroke:rgb(149,110,45);stroke-width:2.06px;"/>
                </g>
                <path d="M43.25,15.697C43.25,15.697 26.856,17.916 27.07,25.075C27.285,32.235 26.211,25.648 19.124,28.941C12.036,32.235 25.782,17.344 21.916,13.907C18.05,10.471 20.341,8.251 26.354,7.75" style="fill:none;stroke:rgb(149,110,45);stroke-width:2.1px;"/>
                <path d="M25.742,7.847C25.742,7.847 28.033,20.992 34.402,8.122" style="fill:none;stroke:rgb(149,110,45);stroke-width:2.1px;"/>
            </g>
            <g transform="matrix(-0.979937,0.328546,-0.383065,-1.14255,99.9841,288.541)">
                <g transform="matrix(1,0,0,1.03146,-1.42109e-14,-0.323623)">
                    <path d="M36.841,28.185C36.841,28.185 35.583,22.032 41.735,17.837C47.888,13.642 35.862,13.083 37.54,10.287" style="fill:none;stroke:rgb(149,110,45);stroke-width:2.02px;"/>
                </g>
                <path d="M43.25,15.697C43.25,15.697 26.856,17.916 27.07,25.075C27.285,32.235 26.211,25.648 19.124,28.941C12.036,32.235 25.782,17.344 21.916,13.907C18.05,10.471 20.341,8.251 26.354,7.75" style="fill:none;stroke:rgb(149,110,45);stroke-width:2.06px;"/>
                <path d="M25.742,7.847C25.742,7.847 28.033,20.992 34.402,8.122" style="fill:none;stroke:rgb(149,110,45);stroke-width:2.06px;"/>
            </g>
            <g transform="matrix(-1.03354,0.00445015,-0.00518861,-1.20504,60.293,305.315)">
                <g transform="matrix(1,0,0,1.03146,-1.42109e-14,-0.323623)">
                    <path d="M36.841,28.185C36.841,28.185 35.583,22.032 41.735,17.837C47.888,13.642 35.862,13.083 37.54,10.287" style="fill:none;stroke:rgb(149,110,45);stroke-width:2.02px;"/>
                </g>
                <path d="M43.25,15.697C43.25,15.697 26.856,17.916 27.07,25.075C27.285,32.235 26.211,25.648 19.124,28.941C12.036,32.235 25.782,17.344 21.916,13.907C18.05,10.471 20.341,8.251 26.354,7.75" style="fill:none;stroke:rgb(149,110,45);stroke-width:2.06px;"/>
                <path d="M25.742,7.847C25.742,7.847 28.033,20.992 34.402,8.122" style="fill:none;stroke:rgb(149,110,45);stroke-width:2.06px;"/>
            </g>
            <g transform="matrix(-1.03247,-0.0472231,0.0550593,-1.2038,27.3723,304.44)">
                <path d="M43.25,15.697C43.25,15.697 26.856,17.916 27.07,25.075C27.285,32.235 26.211,25.648 19.124,28.941C12.036,32.235 25.782,17.344 21.916,13.907C18.05,10.471 20.341,8.251 26.354,7.75" style="fill:none;stroke:rgb(149,110,45);stroke-width:2.06px;"/>
                <path d="M25.742,7.847C25.742,7.847 28.033,20.992 34.402,8.122" style="fill:none;stroke:rgb(149,110,45);stroke-width:2.06px;"/>
            </g>
            <g transform="matrix(0.997779,-0.0666085,0.0716311,1.07302,-32.7814,2.69214)">
                <path d="M36.841,28.185C36.841,28.185 35.583,22.032 41.735,17.837C47.888,13.642 35.862,13.083 37.54,10.287" style="fill:none;stroke:rgb(149,110,45);stroke-width:2.23px;"/>
                <path d="M43.25,15.697C43.25,15.697 26.856,17.916 27.07,25.075C27.285,32.235 26.211,25.648 19.124,28.941C12.036,32.235 25.782,17.344 21.916,13.907C18.05,10.471 20.341,8.251 26.354,7.75" style="fill:none;stroke:rgb(149,110,45);stroke-width:2.23px;"/>
                <path d="M25.742,7.847C25.742,7.847 28.033,20.992 34.402,8.122" style="fill:none;stroke:rgb(149,110,45);stroke-width:2.23px;"/>
            </g>
        </g>
    </g>
</svg>
